<svg width="960" height="640" viewBox="0 0 960 640" xmlns="http://www.w3.org/2000/svg" role="img" aria-label="여행 기본 이미지">
  <defs>
    <linearGradient id="bg" x1="0%" y1="0%" x2="100%" y2="100%">
      <stop offset="0%" stop-color="#c1e9ff" />
      <stop offset="100%" stop-color="#fbe3ff" />
    </linearGradient>
  </defs>
  <rect width="960" height="640" fill="url(#bg)" />
  <circle cx="720" cy="160" r="80" fill="#ffe27a" opacity="0.9" />
  <path d="M0 520 C160 460 320 460 480 520 C640 580 800 580 960 520 L960 640 L0 640 Z" fill="#8ed1fc" opacity="0.85" />
  <path d="M0 560 C200 500 360 500 560 560 C720 600 840 600 960 560 L960 640 L0 640 Z" fill="#6cb6ff" opacity="0.9" />
  <g fill="#223a5f" font-family="Arial, sans-serif" font-size="48" font-weight="700">
    <text x="60" y="160">TRAVEL READY</text>
    <text x="60" y="220" font-size="28" opacity="0.8">이미지가 준비되지 않은 상품입니다.</text>
  </g>
  <g transform="translate(120 320)" fill="none" stroke="#223a5f" stroke-width="6" stroke-linecap="round" stroke-linejoin="round">
    <rect x="20" y="20" width="200" height="120" rx="16" />
    <path d="M20 80 L220 80" />
    <path d="M120 80 L150 30 L210 30" />
    <circle cx="90" cy="80" r="12" />
    <circle cx="180" cy="80" r="12" />
  </g>
</svg>
